<svg width="110" height="110" viewBox="0 0 110 110" fill="none" xmlns="http://www.w3.org/2000/svg">
<g clip-path="url(#clip0_1107_5438)">
<path d="M107.162 38.549C110.069 41.4564 110.582 45.7319 108.53 48.2973L57.9074 107.129C54.829 110.721 49.5273 110.721 45.9358 107.3L2.83806 64.2024C-0.582399 60.7819 -0.582399 55.3092 3.00908 52.2308L61.6699 1.77909C64.2352 -0.444201 68.5108 0.23989 71.4182 3.14728L107.162 38.549Z" fill="white"/>
<path d="M87.1526 18.7034L21.822 83.179L6.60095 67.958L74.668 6.21875L87.1526 18.7034Z" fill="#333333"/>
<path d="M84.7583 31.7012L38.9242 78.7324L51.2378 91.0461L95.5327 42.4756L84.7583 31.7012Z" fill="white"/>
<path d="M58.5913 74.4555C56.0259 72.0611 57.5651 67.6146 58.4202 65.2202C59.9594 61.4577 61.4986 68.6407 61.4986 69.8379C61.8407 73.4293 61.3276 77.1918 60.4725 80.7833C59.9594 82.8356 59.2754 84.7168 58.2492 86.5981C57.7362 87.7952 56.881 88.8214 55.8549 89.5055C53.2896 91.0447 51.7504 89.5055 51.2373 85.2299C51.5793 83.8617 52.0924 82.6646 53.1185 81.6384C56.368 77.5339 61.4987 75.6526 65.2612 72.4032C65.6032 72.0611 65.0901 71.5481 64.7481 71.8901C60.3015 75.6526 51.0663 78.731 50.5532 86.085C50.2111 90.8736 55.1708 92.0708 57.7361 89.3344C61.1566 85.743 62.0117 79.4151 62.3538 74.6265C62.5248 71.8901 63.2089 64.0231 59.1043 63.168C58.9333 63.168 58.7623 63.168 58.7623 63.339C57.0521 66.2464 54.8288 72.2322 58.2492 75.3106C58.4202 75.4816 58.9333 74.7975 58.5913 74.4555Z" fill="#4F5B60"/>
<path d="M64.2349 71.725C67.8264 73.7773 68.8525 65.7392 68.3394 63.5159C68.3394 63.1739 67.8264 63.1739 67.6553 63.3449C65.7741 64.8841 65.432 68.9887 66.9712 71.383C67.1423 71.725 67.4843 71.725 67.6553 71.383C68.8525 69.1597 69.5366 66.9364 70.3917 64.5421C70.7337 63.5159 71.5889 63.858 72.2729 63.1739L76.3775 59.0693C78.0877 57.3591 78.6008 54.9648 80.14 53.2546C82.1923 51.0313 84.0735 50.0051 85.0997 46.9267C85.2707 46.2426 85.2707 44.5324 84.0735 44.5324C81.6792 44.3614 79.6269 49.321 82.8764 48.808C86.6389 48.2949 90.0593 43.8483 92.4536 41.454C92.7957 41.1119 92.2826 40.5989 91.9406 40.9409C90.7434 42.1381 89.3752 43.3352 88.1781 44.3614C87.1519 45.2165 86.1258 46.0716 84.9286 46.9267C84.4156 47.2688 79.969 49.321 82.7053 46.0716C83.2184 46.4137 83.7315 46.7557 84.2445 47.2688C84.0735 47.6108 83.9025 48.1239 83.7315 48.4659C83.3894 49.15 82.8764 49.8341 82.3633 50.5182C81.5082 51.7154 79.969 52.3994 78.9428 53.5966C77.5747 55.1358 77.0616 57.1881 75.6934 58.7273C75.0093 59.4114 71.7599 63.6869 70.5627 63.1739C70.3917 63.1739 70.2207 63.1739 70.2207 63.3449C69.8786 64.5421 69.5366 65.5682 69.0235 66.7654C68.8525 67.1074 67.3133 70.3568 67.3133 70.5279C66.6292 68.8176 66.8002 66.7654 67.4843 65.2262C67.9974 66.0813 67.9974 67.1074 67.6553 67.9625C67.3133 70.0148 66.2871 71.2119 64.5769 71.554C64.0639 70.6989 63.7218 71.383 64.2349 71.725Z" fill="#4F5B60"/>
</g>
<defs>
<clipPath id="clip0_1107_5438">
<rect width="109.455" height="109.455" fill="white" transform="translate(0.272705 0.408203)"/>
</clipPath>
</defs>
</svg>
