<svg width="624" height="454" viewBox="0 0 624 454" fill="none" xmlns="http://www.w3.org/2000/svg">
<path d="M572.021 359.256H551.386V372.166H572.021V359.256Z" fill="white" stroke="#1C1B20" stroke-linecap="round" stroke-linejoin="round"/>
<path d="M377.843 409.708C384.733 409.708 390.318 404.123 390.318 397.234C390.318 390.345 384.733 384.76 377.843 384.76C370.954 384.76 365.369 390.345 365.369 397.234C365.369 404.123 370.954 409.708 377.843 409.708Z" fill="#1C1B20" stroke="#1C1B20" stroke-linecap="round" stroke-linejoin="round"/>
<path d="M583.113 190.762H575.749V397.519H583.113V190.762Z" fill="#1C1B20" stroke="#1C1B20" stroke-linecap="round" stroke-linejoin="round"/>
<path d="M579.19 263.083L561.771 249.226C554.363 243.322 548.805 235.415 545.76 226.444C542.715 217.473 542.31 207.817 544.593 198.623C545.265 195.939 546.811 193.555 548.989 191.849C551.166 190.142 553.85 189.21 556.616 189.199H601.704C604.472 189.205 607.159 190.135 609.337 191.843C611.515 193.55 613.061 195.936 613.728 198.623C616.015 207.815 615.613 217.471 612.57 226.442C609.527 235.413 603.972 243.322 596.564 249.226L579.19 263.083ZM556.647 196.248C555.442 196.244 554.272 196.645 553.323 197.386C552.375 198.127 551.703 199.166 551.416 200.336C549.452 208.215 549.795 216.493 552.404 224.184C555.013 231.874 559.777 238.652 566.13 243.71L579.16 254.08L592.206 243.71C598.561 238.653 603.329 231.876 605.943 224.187C608.557 216.497 608.906 208.218 606.949 200.336C606.66 199.168 605.988 198.13 605.04 197.389C604.092 196.648 602.923 196.246 601.719 196.248H556.647Z" fill="#1C1B20"/>
<path d="M535.951 365.717H307.912V392.258H535.951V365.717Z" fill="white"/>
<mask id="mask0_1024_4541" style="mask-type:luminance" maskUnits="userSpaceOnUse" x="307" y="365" width="229" height="28">
<path d="M535.951 365.717H307.912V392.258H535.951V365.717Z" fill="white"/>
</mask>
<g mask="url(#mask0_1024_4541)">
<path opacity="0.28" d="M535.951 365.717H307.912V392.258H535.951V365.717Z" fill="#1C1B20" stroke="#1C1B20" stroke-linecap="round" stroke-linejoin="round"/>
</g>
<path d="M535.951 365.717H307.912V392.258H535.951V365.717Z" stroke="#1C1B20" stroke-linecap="round" stroke-linejoin="round"/>
<path d="M333.462 365.717H307.912V392.258H333.462V365.717Z" stroke="#1C1B20" stroke-linecap="round" stroke-linejoin="round"/>
<path d="M535.936 365.717H510.386V392.258H535.936V365.717Z" stroke="#1C1B20" stroke-linecap="round" stroke-linejoin="round"/>
<path d="M434.699 365.717H409.149V392.258H434.699V365.717Z" stroke="#1C1B20" stroke-linecap="round" stroke-linejoin="round"/>
<path d="M535.951 392.259H551.672L571.33 317.549H555.609L535.951 392.259Z" fill="white" stroke="#1C1B20" stroke-linecap="round" stroke-linejoin="round"/>
<path d="M589.756 349.006H569.121V382.431H589.756V349.006Z" fill="white" stroke="#1C1B20" stroke-linecap="round" stroke-linejoin="round"/>
<path d="M574.381 409.708C573.211 409.688 572.095 409.215 571.267 408.388C570.44 407.56 569.967 406.444 569.947 405.274V388.637C569.967 387.467 570.44 386.35 571.267 385.523C572.095 384.696 573.211 384.222 574.381 384.203C575.551 384.222 576.667 384.696 577.495 385.523C578.322 386.35 578.795 387.467 578.815 388.637V405.319C578.784 406.481 578.305 407.586 577.479 408.404C576.653 409.222 575.543 409.689 574.381 409.708Z" fill="#1C1B20"/>
<path d="M584.917 409.708C583.747 409.688 582.63 409.215 581.803 408.388C580.976 407.56 580.502 406.444 580.483 405.274V388.637C580.502 387.467 580.976 386.35 581.803 385.523C582.63 384.696 583.747 384.222 584.917 384.203C586.099 384.203 587.235 384.668 588.078 385.497C588.922 386.326 589.406 387.454 589.425 388.637V405.319C589.394 406.494 588.905 407.61 588.063 408.43C587.221 409.25 586.092 409.708 584.917 409.708Z" fill="#1C1B20"/>
<path d="M1 409.709H622.925" stroke="#1C1B20" stroke-linecap="round" stroke-linejoin="round"/>
<path d="M215.573 453.128C275.535 453.128 324.144 447.22 324.144 439.932C324.144 432.644 275.535 426.736 215.573 426.736C155.61 426.736 107.001 432.644 107.001 439.932C107.001 447.22 155.61 453.128 215.573 453.128Z" fill="#15BA5C"/>
<path opacity="0.5" d="M215.573 453.128C275.535 453.128 324.144 447.22 324.144 439.932C324.144 432.644 275.535 426.736 215.573 426.736C155.61 426.736 107.001 432.644 107.001 439.932C107.001 447.22 155.61 453.128 215.573 453.128Z" fill="white"/>
<path d="M440.245 439.888C440.245 443.525 416.003 446.471 386.139 446.471C356.276 446.471 332.034 443.465 332.034 439.888C332.034 436.311 356.261 433.32 386.139 433.32C416.018 433.32 440.245 436.311 440.245 439.888Z" fill="#15BA5C"/>
<path opacity="0.5" d="M440.245 439.888C440.245 443.525 416.003 446.471 386.139 446.471C356.276 446.471 332.034 443.465 332.034 439.888C332.034 436.311 356.261 433.32 386.139 433.32C416.018 433.32 440.245 436.311 440.245 439.888Z" fill="white"/>
<path d="M237.23 5.22647C237.23 5.22647 228.828 -1.37137 219.195 1.92003C209.561 5.21144 202.257 21.2627 199.657 34.3081C197.057 47.3535 187.062 57.2427 189.467 72.5425C191.871 87.8422 209.26 90.2319 230.256 92.4863C251.252 94.7407 262.644 92.1857 272.533 78.3888C282.423 64.592 278.229 47.8043 272.383 32.9554C266.537 18.1065 256.798 4.32471 248.697 1.76974C240.596 -0.78523 237.23 5.22647 237.23 5.22647Z" fill="#1C1B20" stroke="#1C1B20" stroke-linecap="round" stroke-linejoin="round"/>
<path d="M202.512 83.6934C203.93 84.3308 205.404 84.834 206.916 85.1963" stroke="white" stroke-linecap="round" stroke-linejoin="round"/>
<path d="M235.126 15.9121C231.701 23.5626 227.361 30.7692 222.2 37.3739C213.604 48.4204 194.592 58.8507 193.374 70.4382C193.179 71.9896 193.315 73.5649 193.773 75.0598C194.232 76.5547 195.003 77.9353 196.035 79.1101" stroke="white" stroke-linecap="round" stroke-linejoin="round"/>
<path d="M270.008 71.3242C269.387 72.7789 268.59 74.1518 267.634 75.4122" stroke="white" stroke-linecap="round" stroke-linejoin="round"/>
<path d="M262.779 42.2891C262.779 42.2891 272.443 53.4408 271.511 65.3439" stroke="white" stroke-linecap="round" stroke-linejoin="round"/>
<path d="M233.292 9.76441C229.525 9.38104 225.722 9.90554 222.2 11.294C218.678 12.6825 215.539 14.8945 213.048 17.7449C212.702 18.1357 212.386 18.5265 212.086 18.9172" stroke="white" stroke-linecap="round" stroke-linejoin="round"/>
<path d="M177.849 293.052L175.97 321.968C175.97 321.968 167.975 360.758 165.45 376.749C162.925 392.741 158.296 417.058 157.454 417.058C156.613 417.058 142.816 425.399 138.397 432.207C133.979 439.016 139.585 441.901 145.716 439.722C151.848 437.543 160.175 431.381 162.895 424.062C165.615 416.742 166.968 414.022 167.148 412.835C167.329 411.647 196.41 333.57 199.296 325.229C202.181 316.888 208.313 292.39 208.313 292.39L222.606 243.906C222.606 243.906 237.906 293.758 238.086 295.967C238.267 298.177 253.897 425.595 254.618 430.359C255.34 435.123 255.129 438.52 258.015 439.542C260.901 440.564 267.709 440.564 271.286 440.564C274.863 440.564 287.277 442.442 293.394 440.909C299.511 439.376 300.202 438.354 295.949 435.288C291.696 432.222 268.07 430.269 265.89 421.341C265.71 420.665 265.545 289.505 265.545 289.505C265.545 289.505 263.501 246.13 260.104 233.896H181.501L177.849 293.052Z" fill="white" stroke="#1C1B20" stroke-linecap="round" stroke-linejoin="round"/>
<path d="M145.702 439.691C151.818 437.467 160.16 431.35 162.88 424.031L163.451 422.528C159.979 426.225 154.434 431.365 154.434 431.365C154.094 429.622 153.336 427.987 152.224 426.601C151.739 426.066 151.118 425.673 150.427 425.464C149.736 425.255 149.002 425.237 148.302 425.414L154.313 418.801C149.805 421.596 141.689 427.307 138.503 432.222C133.949 439 139.54 441.901 145.702 439.691Z" fill="#1C1B20" stroke="#1C1B20" stroke-linecap="round" stroke-linejoin="round"/>
<path d="M295.844 435.259C292.928 433.17 280.95 431.592 272.954 427.939C272.624 428.22 272.367 428.576 272.203 428.976C271.695 430.417 271.298 431.894 271.015 433.395L254.483 429.863V430.329C255.159 435.093 254.994 438.49 257.88 439.512C260.765 440.534 267.574 440.534 271.151 440.534C274.728 440.534 287.142 442.413 293.259 440.88C299.376 439.347 300.157 438.385 295.844 435.259Z" fill="#1C1B20" stroke="#1C1B20" stroke-linecap="round" stroke-linejoin="round"/>
<path d="M200.754 163.35C200.754 163.35 192.953 166.942 183.515 183.895C173.19 202.396 174.963 212.676 174.813 234.994C174.663 257.312 174.212 294.36 174.212 294.36C174.212 294.36 202.767 302.009 223.252 300.807C243.737 299.605 269.723 294.961 269.723 294.961C269.723 294.961 264.177 219.394 258.932 197.661C253.687 175.929 250.53 166.1 250.53 166.1C240.393 167.507 230.121 167.658 219.946 166.551C202.557 164.853 200.754 163.35 200.754 163.35Z" fill="#1C1B20" stroke="#1C1B20" stroke-linecap="round" stroke-linejoin="round"/>
<path d="M233.608 230.184C234.389 232.754 235.111 235.354 235.742 237.954" stroke="white" stroke-linecap="round" stroke-linejoin="round"/>
<path d="M215.497 187.652C221.552 198.824 226.747 210.44 231.038 222.4" stroke="white" stroke-linecap="round" stroke-linejoin="round"/>
<path d="M392.211 148.981C391.309 148.38 376.536 146.066 376.536 146.066L373.65 144.878C373.65 144.878 391.535 146.306 391.685 145.555C391.835 144.803 392.437 143.901 391.234 143.751C390.032 143.601 367.022 138.927 367.022 138.927C367.022 138.927 372.869 133.396 373.62 132.194C374.371 130.991 375.409 128.587 374.206 128.587C373.004 128.587 372.703 129.338 371.065 130.39C369.427 131.442 362.964 133.997 361.161 135.485C359.357 136.973 353.977 140.881 353.977 140.881L291.485 132.284C291.485 132.284 269.543 105.231 264.778 99.4599C261.466 95.6085 257.696 92.1764 253.551 89.24C248.952 87.2111 249.043 90.6077 249.043 90.6077L258.646 133.291C258.646 133.291 283.49 148.095 285.023 148.095C286.556 148.095 353.676 150.319 353.676 150.319C353.676 150.319 358.185 152.423 361.01 154.211C363.836 156 381.856 161.726 381.856 161.726C381.856 161.726 383.058 161.125 381.706 160.073C380.353 159.021 371.666 154.828 371.666 154.828L389.701 158.735C389.701 158.735 390.753 157.984 390.303 157.232C389.852 156.481 373.77 150.334 373.77 150.334L391.805 151.236C391.805 151.236 393.098 149.582 392.211 148.981Z" fill="white" stroke="#1C1B20" stroke-linecap="round" stroke-linejoin="round"/>
<path d="M287.713 127.64C281.235 119.659 268.295 103.728 264.778 99.4599C261.466 95.6085 257.696 92.1764 253.551 89.24C248.952 87.2111 249.043 90.6077 249.043 90.6077L258.646 133.291C258.646 133.291 269.858 139.964 277.673 144.352L287.713 127.64Z" fill="white" stroke="#1C1B20" stroke-linecap="round" stroke-linejoin="round"/>
<path d="M221.299 85.5885C221.299 85.5885 208.253 86.1897 200.258 95.0419C192.262 103.894 193.209 123.372 196.515 135.065C199.822 146.758 204.03 153.205 203.113 157.263C202.196 161.321 198.92 162.659 200.709 166.401C202.497 170.143 212.852 174.201 231.143 173.6C249.433 172.999 252.89 169.091 253.04 165.664C253.191 162.238 251.838 159.367 252.289 157.263C252.74 155.159 265.935 143.466 265.935 130.571C265.935 117.676 260.239 113.182 258.887 103.879C257.534 94.576 257.985 93.2384 252.439 89.1805C246.893 85.1226 228.648 83.0336 221.299 85.5885Z" fill="white" stroke="#1C1B20" stroke-linecap="round" stroke-linejoin="round"/>
<path d="M215.377 130.285C211.017 133.934 206.178 136.968 200.994 139.303" stroke="#1C1B20" stroke-linecap="round" stroke-linejoin="round"/>
<path d="M216.82 131.787C216.82 131.787 213.589 142.217 205.668 147.974" stroke="#1C1B20" stroke-linecap="round" stroke-linejoin="round"/>
<path d="M249.193 95.0254L250.696 109.423L244.384 102.074L249.193 95.0254Z" fill="white" stroke="#1C1B20" stroke-linecap="round" stroke-linejoin="round"/>
<path d="M240.792 110.627L249.193 95.027L241.543 86.791L240.792 110.627Z" fill="white" stroke="#1C1B20" stroke-linecap="round" stroke-linejoin="round"/>
<path d="M224.605 60.0977C225.915 65.2958 226.566 70.638 226.544 75.9986C226.5 79.4697 226.148 82.93 225.492 86.3387L240.791 110.626L245.135 88.0821L247.99 72.4817C247.99 72.4817 230.602 71.4898 224.605 60.0977Z" fill="white" stroke="#1C1B20" stroke-linecap="round" stroke-linejoin="round"/>
<path d="M239.89 97.582L240.792 110.627L236.298 103.579L239.89 97.582Z" fill="white" stroke="#1C1B20" stroke-linecap="round" stroke-linejoin="round"/>
<path d="M220.397 85.7372L234.344 110.776L239.89 97.5802L225.056 77.1855L220.397 85.7372Z" fill="white" stroke="#1C1B20" stroke-linecap="round" stroke-linejoin="round"/>
<path d="M464.742 97.416H338.181V201.268H464.742V97.416Z" fill="#15BA5C"/>
<mask id="mask1_1024_4541" style="mask-type:luminance" maskUnits="userSpaceOnUse" x="338" y="97" width="127" height="105">
<path d="M464.742 97.416H338.181V201.268H464.742V97.416Z" fill="white"/>
</mask>
<g mask="url(#mask1_1024_4541)">
<path opacity="0.2" d="M464.742 97.416H338.181V201.268H464.742V97.416Z" fill="#1C1B20"/>
</g>
<path d="M464.742 97.416H338.181V201.268H464.742V97.416Z" stroke="#1C1B20" stroke-linecap="round" stroke-linejoin="round"/>
<path d="M437.945 97.416H311.384V201.268H437.945V97.416Z" fill="#15BA5C" stroke="#1C1B20" stroke-linecap="round" stroke-linejoin="round"/>
<path d="M485.588 236.226C481.53 229.793 464.742 201.268 464.742 201.268H437.96L451.742 236.226H485.588Z" fill="#15BA5C"/>
<mask id="mask2_1024_4541" style="mask-type:luminance" maskUnits="userSpaceOnUse" x="437" y="201" width="49" height="36">
<path d="M485.588 236.226C481.53 229.793 464.742 201.268 464.742 201.268H437.96L451.742 236.226H485.588Z" fill="white"/>
</mask>
<g mask="url(#mask2_1024_4541)">
<path opacity="0.2" d="M485.588 236.226C481.53 229.793 464.742 201.268 464.742 201.268H437.96L451.742 236.226H485.588Z" fill="#1C1B20"/>
</g>
<path d="M485.588 236.226C481.53 229.793 464.742 201.268 464.742 201.268H437.96L451.742 236.226H485.588Z" stroke="#1C1B20" stroke-linecap="round" stroke-linejoin="round"/>
<path d="M290.463 236.226C294.521 229.793 311.294 201.268 311.294 201.268H338.091L324.309 236.226H290.463Z" fill="#15BA5C" stroke="#1C1B20" stroke-linecap="round" stroke-linejoin="round"/>
<path d="M311.294 201.268L299.646 236.226H431.828L437.96 201.268H311.294Z" fill="#15BA5C" stroke="#1C1B20" stroke-linecap="round" stroke-linejoin="round"/>
<path d="M481.034 134.988V169.766" stroke="#1C1B20" stroke-linecap="round" stroke-linejoin="round"/>
<path d="M487.617 150.033V178.228" stroke="#1C1B20" stroke-linecap="round" stroke-linejoin="round"/>
<path d="M297.782 169.768V191.38" stroke="#1C1B20" stroke-linecap="round" stroke-linejoin="round"/>
<path d="M292.146 181.986V198.894" stroke="#1C1B20" stroke-linecap="round" stroke-linejoin="round"/>
<path d="M199.551 122.921C204.036 128.001 209.242 132.396 215.001 135.967C224.019 141.362 257.083 160.104 259.683 161.156C262.283 162.208 341.247 149.313 341.247 149.313C341.247 149.313 345.756 151.417 348.596 153.205C351.437 154.994 369.442 160.72 369.442 160.72C369.442 160.72 370.644 160.119 369.292 159.082C367.939 158.045 359.252 153.822 359.252 153.822L377.287 157.729C377.287 157.729 378.339 156.978 377.888 156.226C377.437 155.475 361.356 149.328 361.356 149.328L379.391 150.23C379.391 150.23 380.744 148.576 379.842 147.975C378.94 147.374 360.469 143.166 360.469 143.166C360.469 143.166 380.113 141.513 380.263 140.761C380.413 140.01 381.014 139.123 379.812 138.973C378.61 138.822 354.022 136.418 354.022 136.418C354.022 136.418 360.469 132.375 361.221 131.173C361.972 129.97 363.024 127.566 361.822 127.566C360.62 127.566 360.319 128.317 358.681 129.369C357.043 130.421 350.58 132.976 348.777 134.464C346.973 135.952 341.578 139.874 341.578 139.874L269.317 140.025L224.455 104.631" fill="white"/>
<path d="M199.551 122.921C204.036 128.001 209.242 132.396 215.001 135.967C224.019 141.362 257.083 160.104 259.683 161.156C262.283 162.208 341.247 149.313 341.247 149.313C341.247 149.313 345.756 151.417 348.596 153.205C351.437 154.994 369.442 160.72 369.442 160.72C369.442 160.72 370.644 160.119 369.292 159.082C367.939 158.045 359.252 153.822 359.252 153.822L377.287 157.729C377.287 157.729 378.339 156.978 377.888 156.226C377.437 155.475 361.356 149.328 361.356 149.328L379.391 150.23C379.391 150.23 380.744 148.576 379.842 147.975C378.94 147.374 360.469 143.166 360.469 143.166C360.469 143.166 380.113 141.513 380.263 140.761C380.413 140.01 381.014 139.123 379.812 138.973C378.61 138.822 354.022 136.418 354.022 136.418C354.022 136.418 360.469 132.375 361.221 131.173C361.972 129.97 363.024 127.566 361.822 127.566C360.62 127.566 360.319 128.317 358.681 129.369C357.043 130.421 350.58 132.976 348.777 134.464C346.973 135.952 341.578 139.874 341.578 139.874L269.317 140.025L224.455 104.631" stroke="#1C1B20" stroke-linecap="round" stroke-linejoin="round"/>
<path d="M379.782 138.972C378.595 138.821 353.992 136.417 353.992 136.417C353.992 136.417 360.439 132.374 361.191 131.171C361.942 129.969 362.994 127.564 361.792 127.564C360.59 127.564 360.289 128.316 358.651 129.368C357.013 130.42 350.55 132.975 348.747 134.463C346.943 135.951 341.548 139.873 341.548 139.873L269.287 140.024L261.276 133.666C258.271 138.942 252.65 148.831 248.998 155.354C254.618 158.48 258.872 160.809 259.728 161.155C262.283 162.207 341.292 149.312 341.292 149.312C341.292 149.312 345.801 151.416 348.641 153.204C351.482 154.993 369.487 160.719 369.487 160.719C369.487 160.719 370.689 160.118 369.337 159.081C367.984 158.044 359.297 153.821 359.297 153.821L377.332 157.728C377.332 157.728 378.384 156.977 377.933 156.225C377.483 155.474 361.401 149.327 361.401 149.327L379.436 150.229C379.436 150.229 380.789 148.575 379.887 147.974C378.986 147.373 360.469 143.165 360.469 143.165C360.469 143.165 380.113 141.512 380.263 140.76C380.413 140.009 380.984 139.122 379.782 138.972Z" fill="white" stroke="#1C1B20" stroke-linecap="round" stroke-linejoin="round"/>
<path d="M258.782 47.5035C259.038 47.1926 259.376 46.9599 259.758 46.8319C260.14 46.704 260.55 46.686 260.942 46.7801C261.334 46.8741 261.691 47.0763 261.974 47.3636C262.256 47.651 262.452 48.012 262.539 48.4053C262.79 50.0356 262.706 51.7 262.293 53.2969C261.879 54.8938 261.145 56.3897 260.134 57.6934C258.481 59.3466 256.978 59.7975 256.978 57.6934C257.395 54.2668 257.997 50.8652 258.782 47.5035Z" fill="white" stroke="#1C1B20" stroke-linecap="round" stroke-linejoin="round"/>
<path d="M240.326 21.2324C239.799 28.5466 236.669 35.43 231.504 40.6352C226.691 45.3672 221.25 49.4131 215.332 52.6586C215.332 52.6586 216.204 57.3627 217.977 58.8356C219.751 60.3085 223.267 60.0229 223.267 60.0229C225.312 65.6131 228.637 70.647 232.976 74.7215C240.025 81.1841 248.261 80.5979 252.965 70.9041C257.669 61.2102 260.029 51.4863 259.443 45.8954L258.857 40.3045C258.857 40.3045 243.557 31.813 240.326 21.2324Z" fill="white" stroke="#1C1B20" stroke-linecap="round" stroke-linejoin="round"/>
<path d="M239.439 50.2996C240.186 50.2996 240.792 49.223 240.792 47.8949C240.792 46.5668 240.186 45.4902 239.439 45.4902C238.692 45.4902 238.086 46.5668 238.086 47.8949C238.086 49.223 238.692 50.2996 239.439 50.2996Z" fill="#1C1B20"/>
<path d="M246.788 69.491C247.535 69.491 248.141 68.4144 248.141 67.0863C248.141 65.7582 247.535 64.6816 246.788 64.6816C246.041 64.6816 245.436 65.7582 245.436 67.0863C245.436 68.4144 246.041 69.491 246.788 69.491Z" fill="#1C1B20"/>
<path d="M252.484 50.2996C253.231 50.2996 253.837 49.223 253.837 47.8949C253.837 46.5668 253.231 45.4902 252.484 45.4902C251.737 45.4902 251.132 46.5668 251.132 47.8949C251.132 49.223 251.737 50.2996 252.484 50.2996Z" fill="#1C1B20"/>
<path d="M249.779 45.3398C249.263 47.1403 249.109 49.0254 249.328 50.8856C249.779 53.4406 251.883 57.7841 250.08 58.5355C249.257 58.9109 248.347 59.0534 247.448 58.9474C246.55 58.8414 245.698 58.491 244.985 57.9344" stroke="#1C1B20" stroke-linecap="round" stroke-linejoin="round"/>
<path d="M235.531 43.5504C235.531 43.5504 236.253 38.9514 242.279 39.4775" stroke="#1C1B20" stroke-linecap="round" stroke-linejoin="round"/>
<path d="M251.673 40.8916C251.673 40.8916 257.294 36.3828 259.112 44.6339" stroke="#1C1B20" stroke-linecap="round" stroke-linejoin="round"/>
</svg>
