<svg width="38" height="38" viewBox="0 0 38 38" fill="none" xmlns="http://www.w3.org/2000/svg">
<rect x="0.582031" y="0.535156" width="37.0662" height="37.0662" rx="6.17769" fill="#F8BD00" fill-opacity="0.1"/>
<g clip-path="url(#clip0_1171_9252)">
<path d="M25.3383 12.3922V9.7098C25.3383 9.4511 25.2355 9.203 25.0526 9.02007C24.8696 8.83714 24.6215 8.73438 24.3628 8.73438H10.7069C10.4482 8.73438 10.2001 8.83714 10.0171 9.02007C9.83421 9.203 9.73145 9.4511 9.73145 9.7098V23.3658C9.73145 23.6245 9.83421 23.8726 10.0171 24.0555C10.2001 24.2384 10.4482 24.3412 10.7069 24.3412H13.3893" stroke="#F8BD00" stroke-width="1.46314" stroke-linecap="round" stroke-linejoin="round"/>
<path d="M16.0718 16.0496C16.0718 15.7909 16.1745 15.5428 16.3575 15.3599C16.5404 15.177 16.7885 15.0742 17.0472 15.0742H30.7032C30.9619 15.0742 31.21 15.177 31.3929 15.3599C31.5758 15.5428 31.6786 15.7909 31.6786 16.0496V29.7056C31.6786 29.9643 31.5758 30.2124 31.3929 30.3953C31.21 30.5783 30.9619 30.681 30.7032 30.681H17.0472C16.7885 30.681 16.5404 30.5783 16.3575 30.3953C16.1745 30.2124 16.0718 29.9643 16.0718 29.7056V16.0496Z" stroke="#F8BD00" stroke-width="1.46314" stroke-linejoin="round"/>
</g>
<defs>
<clipPath id="clip0_1171_9252">
<rect width="23.4102" height="23.4102" fill="white" transform="translate(9 8)"/>
</clipPath>
</defs>
</svg>
