<svg width="24" height="24" viewBox="0 0 24 24" fill="none" xmlns="http://www.w3.org/2000/svg">
<path d="M9 2V12C9 13.1 9.9 14 11 14H22V7.62C21.27 8.49 20.15 9.03 18.91 9C17.9 8.98 16.99 8.59 16.31 7.94C16 7.68 15.74 7.34999 15.54 6.98999C15.18 6.37999 14.98 5.65997 15 4.90997C15.03 3.73997 15.55 2.71 16.36 2H9Z" stroke="#737373" stroke-width="1.32" stroke-linecap="round" stroke-linejoin="round"/>
<path d="M2 14V17C2 18.66 3.34 20 5 20H6C6 18.9 6.9 18 8 18C9.1 18 10 18.9 10 20H14C14 18.9 14.9 18 16 18C17.1 18 18 18.9 18 20H19C20.66 20 22 18.66 22 17V14H11C9.9 14 9 13.1 9 12V5H7.15997C6.43997 5 5.77998 5.39001 5.41998 6.01001L3.71002 9H5C5.55 9 6 9.45 6 10V13C6 13.55 5.55 14 5 14H2Z" stroke="#737373" stroke-width="1.32" stroke-linecap="round" stroke-linejoin="round"/>
<path d="M16 22C14.8954 22 14 21.1046 14 20C14 18.8954 14.8954 18 16 18C17.1046 18 18 18.8954 18 20C18 21.1046 17.1046 22 16 22Z" stroke="#737373" stroke-width="1.32" stroke-linecap="round" stroke-linejoin="round"/>
<path d="M8 22C6.89543 22 6 21.1046 6 20C6 18.8954 6.89543 18 8 18C9.10457 18 10 18.8954 10 20C10 21.1046 9.10457 22 8 22Z" stroke="#737373" stroke-width="1.32" stroke-linecap="round" stroke-linejoin="round"/>
<path d="M2 12V14H5C5.55 14 6 13.55 6 13V10C6 9.45 5.55 9 5 9H3.71002L2 12Z" stroke="#737373" stroke-width="1.32" stroke-linecap="round" stroke-linejoin="round"/>
<path d="M15.0001 4.90975C14.9801 5.65975 15.1801 6.37977 15.5401 6.98977C15.7401 7.34977 16.0001 7.67978 16.3101 7.93978C16.9901 8.58978 17.9 8.97978 18.91 8.99978C20.15 9.02978 21.2701 8.48977 22.0001 7.61977C22.1401 7.46977 22.2601 7.29978 22.3701 7.12978C22.7601 6.53978 22.9801 5.8398 23.0001 5.0898C23.0301 3.8298 22.4701 2.67977 21.5701 1.92977C20.8901 1.36977 20.0301 1.01978 19.0901 0.999776C18.0401 0.979776 17.0801 1.35978 16.3601 1.99978C15.5501 2.70978 15.0301 3.73975 15.0001 4.90975Z" stroke="#737373" stroke-width="1.32" stroke-miterlimit="10" stroke-linecap="round" stroke-linejoin="round"/>
<path d="M20.5601 5.02979L19.55 5.98975L17.4601 3.96973" stroke="#737373" stroke-width="1.32" stroke-linecap="round" stroke-linejoin="round"/>
</svg>
