<svg width="30" height="25" viewBox="0 0 35 35" fill="none" xmlns="http://www.w3.org/2000/svg">
<g clip-path="url(#clip0_136_109191)">
<path d="M28.8688 34.5H6.13125C4.1975 34.5 2.625 32.9275 2.625 30.9938V14.6313C2.625 12.6975 4.1975 11.125 6.13125 11.125H28.8688C30.8025 11.125 32.375 12.6975 32.375 14.6313V30.9725C32.375 32.9062 30.8025 34.4788 28.8688 34.4788V34.5ZM6.13125 13.25C5.36625 13.25 4.75 13.8663 4.75 14.6313V30.9725C4.75 31.7375 5.36625 32.3538 6.13125 32.3538H28.8688C29.6338 32.3538 30.25 31.7375 30.25 30.9725V14.6313C30.25 13.8663 29.6338 13.25 28.8688 13.25H6.13125Z" fill="#1E1E1E"/>
<path d="M27.1475 13.25H7.85254V10.1475C7.85254 4.835 12.1875 0.5 17.5 0.5C22.8125 0.5 27.1475 4.835 27.1475 10.1475V13.25ZM9.97754 11.125H25.0225V10.1475C25.0225 6.00375 21.6438 2.625 17.5 2.625C13.3563 2.625 9.97754 6.00375 9.97754 10.1475V11.125Z" fill="#1E1E1E"/>
<path d="M26 24.9375C27.1736 24.9375 28.125 23.9861 28.125 22.8125C28.125 21.6389 27.1736 20.6875 26 20.6875C24.8264 20.6875 23.875 21.6389 23.875 22.8125C23.875 23.9861 24.8264 24.9375 26 24.9375Z" fill="#1E1E1E"/>
<path d="M17.5 24.9375C18.6736 24.9375 19.625 23.9861 19.625 22.8125C19.625 21.6389 18.6736 20.6875 17.5 20.6875C16.3264 20.6875 15.375 21.6389 15.375 22.8125C15.375 23.9861 16.3264 24.9375 17.5 24.9375Z" fill="#1E1E1E"/>
<path d="M9 24.9375C10.1736 24.9375 11.125 23.9861 11.125 22.8125C11.125 21.6389 10.1736 20.6875 9 20.6875C7.82639 20.6875 6.875 21.6389 6.875 22.8125C6.875 23.9861 7.82639 24.9375 9 24.9375Z" fill="#1E1E1E"/>
</g>
<defs>
<clipPath id="clip0_136_109191">
<rect width="34" height="34" fill="white" transform="translate(0.5 0.5)"/>
</clipPath>
</defs>
</svg>
