<svg width="24" height="24" viewBox="0 0 24 24" fill="none" xmlns="http://www.w3.org/2000/svg">
<path d="M22 2H20.26C19.18 2 18.33 2.93 18.42 4L19.25 13.96C19.39 15.59 18.1 16.99 16.46 16.99H5.81C4.37 16.99 3.11 15.81 3 14.38L2.46 6.88C2.34 5.22 3.6 3.87 5.27 3.87H18.18" stroke="#737373" stroke-width="1.32" stroke-miterlimit="10" stroke-linecap="round" stroke-linejoin="round"/>
<path d="M7.75 22C7.05964 22 6.5 21.4404 6.5 20.75C6.5 20.0596 7.05964 19.5 7.75 19.5C8.44036 19.5 9 20.0596 9 20.75C9 21.4404 8.44036 22 7.75 22Z" stroke="#737373" stroke-width="1.32" stroke-miterlimit="10" stroke-linecap="round" stroke-linejoin="round"/>
<path d="M15.75 22C15.0596 22 14.5 21.4404 14.5 20.75C14.5 20.0596 15.0596 19.5 15.75 19.5C16.4404 19.5 17 20.0596 17 20.75C17 21.4404 16.4404 22 15.75 22Z" stroke="#737373" stroke-width="1.32" stroke-miterlimit="10" stroke-linecap="round" stroke-linejoin="round"/>
<path d="M15 8H3" stroke="#737373" stroke-width="1.32" stroke-miterlimit="10" stroke-linecap="round" stroke-linejoin="round"/>
</svg>
