<svg width="35" height="35" viewBox="0 0 35 35" fill="none" xmlns="http://www.w3.org/2000/svg">
<path d="M5.83341 14.0007C5.83341 8.16732 8.16675 5.83398 14.0001 5.83398H21.0001C26.8334 5.83398 29.1667 8.16732 29.1667 14.0007V21.0007C29.1667 26.834 26.8334 29.1673 21.0001 29.1673" stroke="white" stroke-width="2.00521" stroke-linecap="round" stroke-linejoin="round"/>
<path d="M11.1563 11.6673C11.9584 10.6465 13.3001 10.209 15.3126 10.209H19.6876C23.3334 10.209 24.7917 11.6673 24.7917 15.3132V19.6882C24.7917 21.7007 24.3542 23.0423 23.348 23.8444" stroke="white" stroke-width="2.00521" stroke-linecap="round" stroke-linejoin="round"/>
<path d="M23.3188 5.83268V2.91602" stroke="white" stroke-width="2.00521" stroke-linecap="round" stroke-linejoin="round"/>
<path d="M17.5 5.83268V2.91602" stroke="white" stroke-width="2.00521" stroke-linecap="round" stroke-linejoin="round"/>
<path d="M11.6667 5.83268V2.91602" stroke="white" stroke-width="1.36719" stroke-linecap="round" stroke-linejoin="round"/>
<path d="M5.83325 11.666H2.91658" stroke="white" stroke-width="1.36719" stroke-linecap="round" stroke-linejoin="round"/>
<path d="M23.3188 29.166V32.0827" stroke="white" stroke-width="1.36719" stroke-linecap="round" stroke-linejoin="round"/>
<path d="M32.0833 11.666H29.1666" stroke="white" stroke-width="1.36719" stroke-linecap="round" stroke-linejoin="round"/>
<path d="M32.0833 17.5H29.1666" stroke="white" stroke-width="1.36719" stroke-linecap="round" stroke-linejoin="round"/>
<path d="M32.0833 23.334H29.1666" stroke="white" stroke-width="1.36719" stroke-linecap="round" stroke-linejoin="round"/>
<path d="M10.6314 27.1102C9.35084 27.1102 8.3127 26.072 8.3127 24.7914C8.3127 23.5108 9.35084 22.4727 10.6314 22.4727C11.9121 22.4727 12.9502 23.5108 12.9502 24.7914C12.9502 26.072 11.9121 27.1102 10.6314 27.1102Z" stroke="white" stroke-width="1.36719" stroke-miterlimit="10" stroke-linecap="round" stroke-linejoin="round"/>
<path d="M18.3601 25.4627V24.1065C18.3601 23.3044 17.7039 22.6481 16.9018 22.6481C15.5018 22.6481 14.933 21.6565 15.633 20.4461C16.0414 19.7461 15.7934 18.8419 15.0934 18.4481L13.7664 17.6752C13.1539 17.3106 12.3664 17.5294 12.0018 18.1419L11.9143 18.2877C11.2143 19.4981 10.0768 19.4981 9.37677 18.2877L9.28927 18.1419C8.92469 17.5294 8.13719 17.3252 7.52469 17.6752L6.19761 18.4481C5.49761 18.8565 5.24969 19.7461 5.65802 20.4461C6.35802 21.6565 5.78927 22.6481 4.38927 22.6481C3.58719 22.6481 2.93094 23.3044 2.93094 24.1065V25.4627C2.93094 26.2648 3.58719 26.9211 4.38927 26.9211C5.78927 26.9211 6.35802 27.9127 5.65802 29.1231C5.24969 29.8231 5.49761 30.7273 6.19761 31.1211L7.52469 31.894C8.13719 32.2586 8.92469 32.0398 9.28927 31.4273L9.37677 31.2815C10.0768 30.0711 11.2143 30.0711 11.9143 31.2815L12.0018 31.4273C12.3664 32.0398 13.1539 32.244 13.7664 31.894L15.0934 31.1211C15.7934 30.7127 16.0414 29.8231 15.633 29.1231C14.933 27.9127 15.5018 26.9211 16.9018 26.9211C17.7039 26.9356 18.3601 26.2794 18.3601 25.4627Z" stroke="white" stroke-width="1.36719" stroke-miterlimit="10" stroke-linecap="round" stroke-linejoin="round"/>
</svg>
