<svg width="25" height="24" viewBox="0 0 25 24" fill="none" xmlns="http://www.w3.org/2000/svg">
<path d="M4.5 9.6C4.5 5.6 6.1 4 10.1 4H14.9C18.9 4 20.5 5.6 20.5 9.6V14.4C20.5 18.4 18.9 20 14.9 20" stroke="#737373" stroke-width="1.375" stroke-linecap="round" stroke-linejoin="round"/>
<path d="M8.15 8C8.7 7.3 9.62 7 11 7H14C16.5 7 17.5 8 17.5 10.5V13.5C17.5 14.88 17.2 15.8 16.51 16.35" stroke="#737373" stroke-width="1.375" stroke-linecap="round" stroke-linejoin="round"/>
<path d="M16.49 4V2" stroke="#737373" stroke-width="1.375" stroke-linecap="round" stroke-linejoin="round"/>
<path d="M12.5 4V2" stroke="#737373" stroke-width="1.375" stroke-linecap="round" stroke-linejoin="round"/>
<path d="M8.5 4V2" stroke="#737373" stroke-width="0.9375" stroke-linecap="round" stroke-linejoin="round"/>
<path d="M4.5 8H2.5" stroke="#737373" stroke-width="0.9375" stroke-linecap="round" stroke-linejoin="round"/>
<path d="M16.49 20V22" stroke="#737373" stroke-width="0.9375" stroke-linecap="round" stroke-linejoin="round"/>
<path d="M22.5 8H20.5" stroke="#737373" stroke-width="0.9375" stroke-linecap="round" stroke-linejoin="round"/>
<path d="M22.5 12H20.5" stroke="#737373" stroke-width="0.9375" stroke-linecap="round" stroke-linejoin="round"/>
<path d="M22.5 16H20.5" stroke="#737373" stroke-width="0.9375" stroke-linecap="round" stroke-linejoin="round"/>
<path d="M7.78988 18.5902C6.91175 18.5902 6.19988 17.8783 6.19988 17.0002C6.19988 16.122 6.91175 15.4102 7.78988 15.4102C8.66802 15.4102 9.37988 16.122 9.37988 17.0002C9.37988 17.8783 8.66802 18.5902 7.78988 18.5902Z" stroke="#737373" stroke-width="0.9375" stroke-miterlimit="10" stroke-linecap="round" stroke-linejoin="round"/>
<path d="M13.0901 17.4595V16.5295C13.0901 15.9795 12.6401 15.5295 12.0901 15.5295C11.1301 15.5295 10.7401 14.8495 11.2201 14.0195C11.5001 13.5395 11.3301 12.9195 10.8501 12.6495L9.94009 12.1195C9.52009 11.8695 8.98009 12.0195 8.73009 12.4395L8.67009 12.5395C8.19009 13.3695 7.41009 13.3695 6.93009 12.5395L6.87009 12.4395C6.62009 12.0195 6.08009 11.8795 5.66009 12.1195L4.75009 12.6495C4.27009 12.9295 4.10009 13.5395 4.38009 14.0195C4.86009 14.8495 4.47009 15.5295 3.51009 15.5295C2.96009 15.5295 2.51009 15.9795 2.51009 16.5295V17.4595C2.51009 18.0095 2.96009 18.4595 3.51009 18.4595C4.47009 18.4595 4.86009 19.1395 4.38009 19.9695C4.10009 20.4495 4.27009 21.0695 4.75009 21.3395L5.66009 21.8695C6.08009 22.1195 6.62009 21.9695 6.87009 21.5495L6.93009 21.4495C7.41009 20.6195 8.19009 20.6195 8.67009 21.4495L8.73009 21.5495C8.98009 21.9695 9.52009 22.1095 9.94009 21.8695L10.8501 21.3395C11.3301 21.0595 11.5001 20.4495 11.2201 19.9695C10.7401 19.1395 11.1301 18.4595 12.0901 18.4595C12.6401 18.4695 13.0901 18.0195 13.0901 17.4595Z" stroke="#737373" stroke-width="0.9375" stroke-miterlimit="10" stroke-linecap="round" stroke-linejoin="round"/>
</svg>
