<svg width="24" height="24" viewBox="0 0 24 24" fill="none" xmlns="http://www.w3.org/2000/svg">
<g clip-path="url(#clip0_656_2135)">
<path d="M3.6455 12.09C3.7475 13.355 4.7465 14.285 6.0145 14.356C7.3315 14.4295 9.2975 14.5 12 14.5C14.7025 14.5 16.6685 14.43 17.9855 14.356C19.2535 14.285 20.2525 13.3555 20.3545 12.09C20.4335 11.106 20.5 9.756 20.5 8C20.5 6.244 20.4335 4.8945 20.3545 3.91C20.2525 2.645 19.2535 1.715 17.9855 1.644C16.6685 1.5705 14.7025 1.5 12 1.5C9.2975 1.5 7.3315 1.57 6.0145 1.644C4.7465 1.715 3.7475 2.645 3.645 3.9105C3.5665 4.8945 3.5 6.244 3.5 8C3.5 9.756 3.5665 11.106 3.6455 12.09Z" stroke="#737373" stroke-width="1.5" stroke-linecap="round" stroke-linejoin="round"/>
<path d="M1.50098 18.7027C1.52248 20.9492 3.40748 22.3877 5.65348 22.4377C7.21798 22.4722 9.31448 22.5002 12 22.5002C14.6855 22.5002 16.782 22.4722 18.3465 22.4377C20.5925 22.3877 22.4775 20.9492 22.499 18.7027C22.5002 18.5677 22.5002 18.4327 22.499 18.2977C22.4775 16.0512 20.5925 14.6127 18.3465 14.5627C16.2313 14.5187 14.1156 14.4978 12 14.5002C9.31498 14.5002 7.21798 14.5282 5.65348 14.5627C3.40748 14.6127 1.52248 16.0512 1.50098 18.2977C1.49967 18.4327 1.49967 18.5677 1.50098 18.7027Z" stroke="#737373" stroke-width="1.5" stroke-linecap="round" stroke-linejoin="round"/>
<path d="M14.479 1.52394C14.446 2.74159 14.3893 3.95849 14.309 5.17394C14.3033 5.25968 14.2753 5.34244 14.2278 5.41405C14.1804 5.48566 14.115 5.54362 14.0382 5.58221C13.9614 5.6208 13.8759 5.63868 13.7901 5.63407C13.7043 5.62946 13.6212 5.60253 13.549 5.55594L12.134 4.65744C12.0939 4.6319 12.0473 4.61833 11.9998 4.61833C11.9522 4.61833 11.9056 4.6319 11.8655 4.65744L10.4505 5.55594C10.3783 5.60242 10.2952 5.62925 10.2094 5.63377C10.1236 5.63829 10.0382 5.62034 9.96145 5.58171C9.88474 5.54308 9.81944 5.48509 9.77201 5.41349C9.72458 5.34188 9.69665 5.25914 9.691 5.17344C9.636 4.33994 9.5575 2.97344 9.5205 1.52344M17.5 11.5009H13.5M17.5 9.00094H15M7.5 18.5009C7.5 18.8988 7.34196 19.2803 7.06066 19.5616C6.77936 19.8429 6.39782 20.0009 6 20.0009C5.60218 20.0009 5.22064 19.8429 4.93934 19.5616C4.65804 19.2803 4.5 18.8988 4.5 18.5009C4.5 18.1031 4.65804 17.7216 4.93934 17.4403C5.22064 17.159 5.60218 17.0009 6 17.0009C6.39782 17.0009 6.77936 17.159 7.06066 17.4403C7.34196 17.7216 7.5 18.1031 7.5 18.5009ZM13.5 18.5009C13.5 18.8988 13.342 19.2803 13.0607 19.5616C12.7794 19.8429 12.3978 20.0009 12 20.0009C11.6022 20.0009 11.2206 19.8429 10.9393 19.5616C10.658 19.2803 10.5 18.8988 10.5 18.5009C10.5 18.1031 10.658 17.7216 10.9393 17.4403C11.2206 17.159 11.6022 17.0009 12 17.0009C12.3978 17.0009 12.7794 17.159 13.0607 17.4403C13.342 17.7216 13.5 18.1031 13.5 18.5009ZM19.5 18.5009C19.5 18.8988 19.342 19.2803 19.0607 19.5616C18.7794 19.8429 18.3978 20.0009 18 20.0009C17.6022 20.0009 17.2206 19.8429 16.9393 19.5616C16.658 19.2803 16.5 18.8988 16.5 18.5009C16.5 18.1031 16.658 17.7216 16.9393 17.4403C17.2206 17.159 17.6022 17.0009 18 17.0009C18.3978 17.0009 18.7794 17.159 19.0607 17.4403C19.342 17.7216 19.5 18.1031 19.5 18.5009Z" stroke="#737373" stroke-width="1.5" stroke-linecap="round" stroke-linejoin="round"/>
</g>
<defs>
<clipPath id="clip0_656_2135">
<rect width="24" height="24" fill="white"/>
</clipPath>
</defs>
</svg>
