<svg width="24" height="24" viewBox="0 0 24 24" fill="none" xmlns="http://www.w3.org/2000/svg">
<path d="M8.5605 11.25L2.5605 5.25L1.5 6.3105L6.4395 11.25H1.5V12C1.5 14.7848 2.60625 17.4555 4.57538 19.4246C6.54451 21.3938 9.21523 22.5 12 22.5C14.7848 22.5 17.4555 21.3938 19.4246 19.4246C21.3938 17.4555 22.5 14.7848 22.5 12V11.25H8.5605ZM12 21C9.74377 20.997 7.57071 20.1479 5.91018 18.6204C4.24966 17.0929 3.22244 14.9981 3.0315 12.75H20.9692C20.7783 14.9983 19.751 17.0931 18.0903 18.6206C16.4296 20.1482 14.2564 20.9972 12 21Z" fill="#737373"/>
<path d="M16.5 6C16.0998 6.00051 15.7023 6.06508 15.3225 6.19125C14.7649 5.4363 14.0383 4.82232 13.2009 4.39842C12.3635 3.97452 11.4386 3.75246 10.5 3.75C9.16705 3.74636 7.87142 4.19003 6.8205 5.01L3.3105 1.5L2.25 2.5605L6.7875 7.098L7.31775 6.56775C7.73468 6.14857 8.23062 5.81626 8.77686 5.59007C9.3231 5.36387 9.90878 5.24828 10.5 5.25C11.1758 5.25186 11.8425 5.40539 12.451 5.69927C13.0596 5.99315 13.5944 6.41989 14.016 6.948C13.8558 7.08768 13.7078 7.24074 13.5735 7.4055C13.363 7.66955 13.0955 7.88264 12.7911 8.02887C12.4867 8.1751 12.1532 8.25069 11.8155 8.25H9V9.75H11.8155C12.3779 9.75127 12.9333 9.62554 13.4403 9.38217C13.9473 9.1388 14.3928 8.78409 14.7435 8.3445C15.0348 7.98062 15.4319 7.71618 15.88 7.58774C16.3281 7.4593 16.805 7.47319 17.2448 7.62748C17.6847 7.78178 18.0657 8.06887 18.3353 8.44909C18.605 8.82931 18.7499 9.28388 18.75 9.75H20.25C20.2488 8.7558 19.8533 7.80267 19.1503 7.09966C18.4473 6.39666 17.4942 6.00119 16.5 6Z" fill="#737373"/>
</svg>
