<svg width="22" height="24" viewBox="0 0 22 24" fill="none" xmlns="http://www.w3.org/2000/svg">
<path d="M5.75 11.25V21.735C5.75052 21.9326 5.70223 22.1273 5.60942 22.3017C5.51661 22.4762 5.38216 22.625 5.218 22.735C4.7091 23.0738 4.11138 23.2546 3.5 23.2546C2.88863 23.2546 2.2909 23.0738 1.782 22.735C1.61785 22.625 1.4834 22.4762 1.39059 22.3017C1.29778 22.1273 1.24949 21.9326 1.25 21.735V11.25" stroke="#737373" stroke-width="1.5" stroke-linecap="round" stroke-linejoin="round"/>
<path d="M13.25 6.75V21.735C13.2505 21.9326 13.2022 22.1273 13.1094 22.3017C13.0166 22.4762 12.8822 22.625 12.718 22.735C12.2091 23.0738 11.6114 23.2546 11 23.2546C10.3886 23.2546 9.7909 23.0738 9.282 22.735C9.11784 22.625 8.98339 22.4762 8.89059 22.3017C8.79778 22.1273 8.74949 21.9326 8.75 21.735V6.75M1.25 11.25C1.25 11.648 1.487 12.03 1.909 12.31C2.331 12.59 2.903 12.75 3.5 12.75C4.097 12.75 4.669 12.592 5.091 12.31C5.513 12.03 5.75 11.648 5.75 11.25C5.75 10.852 5.513 10.47 5.091 10.19C4.669 9.908 4.097 9.75 3.5 9.75C2.903 9.75 2.331 9.908 1.909 10.19C1.487 10.47 1.25 10.852 1.25 11.25Z" stroke="#737373" stroke-width="1.5" stroke-linecap="round" stroke-linejoin="round"/>
<path d="M20.75 2.25V21.735C20.7505 21.9326 20.7022 22.1273 20.6094 22.3017C20.5166 22.4762 20.3822 22.625 20.218 22.735C19.7091 23.0738 19.1114 23.2546 18.5 23.2546C17.8886 23.2546 17.2909 23.0738 16.782 22.735C16.6178 22.625 16.4834 22.4762 16.3906 22.3017C16.2978 22.1273 16.2495 21.9326 16.25 21.735V2.25M8.75 6.75C8.75 7.148 8.987 7.53 9.409 7.81C9.831 8.092 10.403 8.25 11 8.25C11.597 8.25 12.169 8.092 12.591 7.81C13.013 7.53 13.25 7.148 13.25 6.75C13.25 6.352 13.013 5.97 12.591 5.69C12.169 5.408 11.597 5.25 11 5.25C10.403 5.25 9.831 5.408 9.409 5.69C8.987 5.97 8.75 6.352 8.75 6.75Z" stroke="#737373" stroke-width="1.5" stroke-linecap="round" stroke-linejoin="round"/>
<path d="M16.25 2.25C16.25 2.648 16.487 3.03 16.909 3.31C17.331 3.592 17.903 3.75 18.5 3.75C19.097 3.75 19.669 3.592 20.091 3.31C20.513 3.03 20.75 2.648 20.75 2.25C20.75 1.852 20.513 1.47 20.091 1.19C19.669 0.907 19.097 0.75 18.5 0.75C17.903 0.75 17.331 0.908 16.909 1.19C16.487 1.47 16.25 1.852 16.25 2.25Z" stroke="#737373" stroke-width="1.5" stroke-linecap="round" stroke-linejoin="round"/>
</svg>
