<svg width="26" height="31" viewBox="0 0 26 31" fill="none" xmlns="http://www.w3.org/2000/svg">
<path d="M7.7394 28.7266H18.2601C19.2037 28.7265 20.1339 28.5036 20.975 28.0758C21.8161 27.6481 22.5442 27.0277 23.1001 26.2652C23.6559 25.5027 24.0237 24.6196 24.1735 23.688C24.3233 22.7563 24.2509 21.8025 23.9622 20.9042L21.4076 12.959C20.9226 11.4499 19.9711 10.1337 18.6902 9.19996C17.4093 8.2662 15.8651 7.76307 14.28 7.76302H11.7195C10.1344 7.76307 8.59017 8.2662 7.30928 9.19996C6.02839 10.1337 5.07691 11.4499 4.59187 12.959L2.03731 20.9042C1.74857 21.8025 1.67616 22.7563 1.82598 23.688C1.9758 24.6196 2.34361 25.5027 2.89944 26.2652C3.45527 27.0277 4.18339 27.6481 5.02447 28.0758C5.86556 28.5036 6.7958 28.7265 7.7394 28.7266ZM17.4919 1.77344C16.4937 5.76649 14.9963 7.76302 12.9997 7.76302C11.0032 7.76302 9.50582 5.76649 8.50756 1.77344H17.4919Z" stroke="#15BA5C" stroke-width="2.99479" stroke-linecap="round" stroke-linejoin="round"/>
<path d="M15.9935 13.7523H12.25C11.6543 13.7523 11.083 13.9889 10.6618 14.4101C10.2405 14.8314 10.0039 15.4027 10.0039 15.9984C10.0039 16.5941 10.2405 17.1654 10.6618 17.5866C11.083 18.0078 11.6543 18.2445 12.25 18.2445H13.7474C14.3431 18.2445 14.9144 18.4811 15.3356 18.9023C15.7568 19.3236 15.9935 19.8949 15.9935 20.4906C15.9935 21.0863 15.7568 21.6576 15.3356 22.0788C14.9144 22.5 14.3431 22.7367 13.7474 22.7367H10.0039M12.9987 12.2549V13.7523M12.9987 22.7367V24.234" stroke="#15BA5C" stroke-width="2.99479" stroke-linecap="round" stroke-linejoin="round"/>
</svg>
