<svg width="28" height="24" viewBox="0 0 28 24" fill="none" xmlns="http://www.w3.org/2000/svg">
<path d="M12.5026 16.4928V13.498H15.4974V16.4928H12.5026ZM11.0052 4.51368H16.9948V2.43978C16.9948 2.21018 16.899 1.99905 16.7073 1.80638C16.5156 1.61372 16.3045 1.51789 16.0739 1.51888H11.9261C11.6965 1.51888 11.4854 1.61472 11.2927 1.80638C11.1 1.99805 11.0042 2.20918 11.0052 2.43978V4.51368ZM2.94323 23.9798C2.25343 23.9798 1.67793 23.7492 1.21673 23.288C0.755534 22.8268 0.524436 22.2508 0.523438 21.56V15.7441H11.0052V16.7803C11.0052 17.1277 11.12 17.4162 11.3496 17.6458C11.5792 17.8754 11.8677 17.9902 12.2151 17.9902H15.7849C16.1323 17.9902 16.4208 17.8754 16.6504 17.6458C16.88 17.4162 16.9948 17.1277 16.9948 16.7803V15.7441H27.4766V21.5615C27.4766 22.2503 27.246 22.8253 26.7848 23.2865C26.3236 23.7477 25.7481 23.9788 25.0583 23.9798H2.94323ZM0.523438 14.2467V6.93347C0.523438 6.24367 0.754536 5.66817 1.21673 5.20697C1.67893 4.74577 2.25393 4.51467 2.94173 4.51368H9.50781V2.43978C9.50781 1.75098 9.73891 1.17548 10.2011 0.713284C10.6633 0.251088 11.2388 0.0204893 11.9276 0.0214876H16.0739C16.7627 0.0214876 17.3382 0.252086 17.8004 0.713284C18.2626 1.17448 18.4932 1.74998 18.4922 2.43978V4.51368H25.0583C25.7471 4.51368 26.3221 4.74477 26.7833 5.20697C27.2445 5.66917 27.4756 6.24467 27.4766 6.93347V14.2467H16.9948V13.2105C16.9948 12.8632 16.88 12.5747 16.6504 12.3451C16.4208 12.1155 16.1323 12.0007 15.7849 12.0007H12.2151C11.8677 12.0007 11.5792 12.1155 11.3496 12.3451C11.12 12.5747 11.0052 12.8632 11.0052 13.2105V14.2467H0.523438Z" fill="#15BA5C"/>
</svg>
