<svg width="28" height="28" viewBox="0 0 28 28" fill="none" xmlns="http://www.w3.org/2000/svg">
<path d="M4.44063 27.7266C3.76979 27.7266 3.19879 27.491 2.7276 27.0198C2.25642 26.5486 2.02083 25.9781 2.02083 25.3083V8.65423C1.59158 8.47654 1.2347 8.18854 0.950195 7.79023C0.66569 7.39093 0.523438 6.93323 0.523438 6.41712V3.19173C0.523438 2.52289 0.759028 1.95239 1.23021 1.48021C1.70139 1.00903 2.2724 0.773438 2.94323 0.773438H25.0583C25.7271 0.773438 26.2976 1.00903 26.7698 1.48021C27.241 1.95139 27.4766 2.5224 27.4766 3.19323V6.41712C27.4766 6.93323 27.3343 7.39043 27.0498 7.78874C26.7663 8.18804 26.4094 8.47654 25.9792 8.65423V25.3083C25.9792 25.9771 25.7436 26.5476 25.2724 27.0198C24.8012 27.491 24.2307 27.7266 23.5609 27.7266H4.44063ZM2.94323 7.33952H25.0583C25.3268 7.33952 25.5474 7.25267 25.7201 7.07897C25.8928 6.90627 25.9792 6.68615 25.9792 6.41862V3.19173C25.9792 2.9232 25.8928 2.70258 25.7201 2.52988C25.5474 2.35718 25.3268 2.27083 25.0583 2.27083H2.94173C2.6732 2.27083 2.45258 2.35718 2.27988 2.52988C2.10718 2.70258 2.02083 2.9237 2.02083 3.19323V6.41712C2.02083 6.68665 2.10718 6.90727 2.27988 7.07897C2.45258 7.25167 2.6737 7.33802 2.94323 7.33802M10.7462 15.5467H17.2823C17.477 15.5467 17.6312 15.4844 17.745 15.3596C17.8598 15.2358 17.9172 15.0771 17.9172 14.8834C17.9172 14.6897 17.8598 14.536 17.745 14.4222C17.6302 14.3084 17.476 14.251 17.2823 14.25H10.7177C10.524 14.25 10.3698 14.3074 10.255 14.4222C10.1412 14.536 10.0843 14.6897 10.0843 14.8834C10.0843 15.0771 10.1462 15.2358 10.27 15.3596C10.3938 15.4834 10.5525 15.5457 10.7462 15.5467Z" fill="#15BA5C"/>
</svg>
