<svg width="27" height="28" viewBox="0 0 27 28" fill="none" xmlns="http://www.w3.org/2000/svg">
<path fill-rule="evenodd" clip-rule="evenodd" d="M5.89941 2.43555C5.6759 2.43555 5.46153 2.52434 5.30348 2.68239C5.14543 2.84044 5.05664 3.0548 5.05664 3.27832V25.1904C5.05663 25.3372 5.09497 25.4815 5.16785 25.6089C5.24073 25.7363 5.34563 25.8425 5.47215 25.9169C5.59868 25.9913 5.74245 26.0314 5.88923 26.0332C6.03601 26.0349 6.18071 25.9984 6.309 25.927L13.4844 21.9407L20.6597 25.927C20.788 25.9984 20.9327 26.0349 21.0795 26.0332C21.2263 26.0314 21.3701 25.9913 21.4966 25.9169C21.6231 25.8425 21.728 25.7363 21.8009 25.6089C21.8738 25.4815 21.9121 25.3372 21.9121 25.1904V3.27832C21.9121 3.0548 21.8233 2.84044 21.6653 2.68239C21.5072 2.52434 21.2929 2.43555 21.0693 2.43555H5.89941ZM8.42773 7.49219H18.541V5.80664H8.42773V7.49219Z" fill="#15BA5C"/>
</svg>
