<svg width="24" height="29" viewBox="0 0 24 29" fill="none" xmlns="http://www.w3.org/2000/svg">
<path d="M20.4702 3.97358C15.7923 -0.627913 8.20799 -0.627913 3.53013 3.97358C2.41949 5.05865 1.53696 6.35479 0.934417 7.78582C0.331877 9.21685 0.0214844 10.7539 0.0214844 12.3066C0.0214844 13.8593 0.331877 15.3963 0.934417 16.8274C1.53696 18.2584 2.41949 19.5545 3.53013 20.6396L11.9994 28.9726L20.4702 20.6396C21.5808 19.5545 22.4633 18.2584 23.0659 16.8274C23.6684 15.3963 23.9788 13.8593 23.9788 12.3066C23.9788 10.7539 23.6684 9.21685 23.0659 7.78582C22.4633 6.35479 21.5808 5.05865 20.4702 3.97358ZM11.9994 16.2447C10.9991 16.2447 10.0603 15.8554 9.35201 15.1486C8.65085 14.446 8.25707 13.4939 8.25707 12.5013C8.25707 11.5086 8.65085 10.5565 9.35201 9.85386C10.0588 9.14709 10.9991 8.75776 11.9994 8.75776C12.9997 8.75776 13.94 9.14709 14.6468 9.85386C15.348 10.5565 15.7417 11.5086 15.7417 12.5013C15.7417 13.4939 15.348 14.446 14.6468 15.1486C13.94 15.8554 12.9997 16.2447 11.9994 16.2447Z" fill="#15BA5C"/>
</svg>
