<svg width="30" height="30" viewBox="0 0 30 30" fill="none" xmlns="http://www.w3.org/2000/svg">
<path d="M15 0.650391C6.93723 0.650391 0.400391 7.18723 0.400391 15.25C0.400391 23.3128 6.93723 29.8496 15 29.8496C23.0628 29.8496 29.5996 23.3128 29.5996 15.25C29.5996 7.18723 23.0628 0.650391 15 0.650391ZM21.7383 17.4961H15C14.7021 17.4961 14.4165 17.3778 14.2059 17.1672C13.9953 16.9566 13.877 16.6709 13.877 16.373V6.26562C13.877 5.96777 13.9953 5.68212 14.2059 5.47151C14.4165 5.2609 14.7021 5.14258 15 5.14258C15.2979 5.14258 15.5835 5.2609 15.7941 5.47151C16.0047 5.68212 16.123 5.96777 16.123 6.26562V15.25H21.7383C22.0361 15.25 22.3218 15.3683 22.5324 15.5789C22.743 15.7895 22.8613 16.0752 22.8613 16.373C22.8613 16.6709 22.743 16.9566 22.5324 17.1672C22.3218 17.3778 22.0361 17.4961 21.7383 17.4961Z" fill="#15BA5C"/>
</svg>
