
<svg width="27" height="28" viewBox="0 0 27 28" fill="none" xmlns="http://www.w3.org/2000/svg">
<g clip-path="url(#clip0_661_2786)">
<path d="M19.7766 20.5274H17.9786V18.7295H19.7766V20.5274ZM14.3828 20.5274H16.1807V18.7295H14.3828V20.5274ZM23.3724 20.5274H21.5745V18.7295H23.3724V20.5274Z" fill="#15BA5C"/>
<path fill-rule="evenodd" clip-rule="evenodd" d="M5.39375 11.5375V7.04271C5.39375 6.21634 5.55652 5.39806 5.87275 4.63459C6.18899 3.87113 6.65251 3.17742 7.23684 2.59309C7.82117 2.00876 8.51488 1.54524 9.27834 1.229C10.0418 0.912766 10.8601 0.75 11.6865 0.75C12.5128 0.75 13.3311 0.912766 14.0946 1.229C14.858 1.54524 15.5517 2.00876 16.1361 2.59309C16.7204 3.17742 17.1839 3.87113 17.5002 4.63459C17.8164 5.39806 17.9792 6.21634 17.9792 7.04271V11.5375H20.676C21.3913 11.5375 22.0773 11.8216 22.583 12.3274C23.0888 12.8332 23.3729 13.5191 23.3729 14.2344V15.2232C24.389 15.4296 25.3025 15.9808 25.9587 16.7836C26.6148 17.5864 26.9733 18.5913 26.9733 19.6281C26.9733 20.6649 26.6148 21.6699 25.9587 22.4727C25.3025 23.2754 24.389 23.8267 23.3729 24.033V25.0219C23.3729 25.7371 23.0888 26.4231 22.583 26.9289C22.0773 27.4346 21.3913 27.7188 20.676 27.7188H2.69688C1.98162 27.7188 1.29566 27.4346 0.789896 26.9289C0.284134 26.4231 0 25.7371 0 25.0219L0 14.2344C0 13.5191 0.284134 12.8332 0.789896 12.3274C1.29566 11.8216 1.98162 11.5375 2.69688 11.5375H5.39375ZM7.19167 7.04271C7.19167 5.85062 7.66522 4.70735 8.50816 3.86441C9.3511 3.02147 10.4944 2.54792 11.6865 2.54792C12.8786 2.54792 14.0218 3.02147 14.8648 3.86441C15.7077 4.70735 16.1812 5.85062 16.1812 7.04271V11.5375H7.19167V7.04271ZM15.2823 16.9312C14.567 16.9312 13.8811 17.2154 13.3753 17.7211C12.8696 18.2269 12.5854 18.9129 12.5854 19.6281C12.5854 20.3434 12.8696 21.0293 13.3753 21.5351C13.8811 22.0409 14.567 22.325 15.2823 22.325H22.474C23.1892 22.325 23.8752 22.0409 24.3809 21.5351C24.8867 21.0293 25.1708 20.3434 25.1708 19.6281C25.1708 18.9129 24.8867 18.2269 24.3809 17.7211C23.8752 17.2154 23.1892 16.9312 22.474 16.9312H15.2823Z" fill="#15BA5C"/>
</g>
<defs>
<clipPath id="clip0_661_2786">
<rect width="26.9688" height="26.9688" fill="white" transform="translate(0 0.75)"/>
</clipPath>
</defs>
</svg>
