<svg width="30" height="21" viewBox="0 0 30 21" fill="none" xmlns="http://www.w3.org/2000/svg">
<path d="M4.89388 0.0185547C3.60319 0.0185547 2.36537 0.531277 1.45272 1.44393C0.540066 2.35658 0.0273438 3.59441 0.0273438 4.88509V6.75684H29.9753V4.88509C29.9753 4.24601 29.8494 3.61318 29.6048 3.02275C29.3603 2.43231 29.0018 1.89583 28.5499 1.44393C28.098 0.99203 27.5615 0.633564 26.9711 0.388998C26.3806 0.144432 25.7478 0.0185547 25.1087 0.0185547H4.89388ZM29.9753 9.00293H0.0273438V16.1156C0.0273438 17.4062 0.540066 18.6441 1.45272 19.5567C2.36537 20.4694 3.60319 20.9821 4.89388 20.9821H25.1087C25.7478 20.9821 26.3806 20.8562 26.9711 20.6117C27.5615 20.3671 28.098 20.0086 28.5499 19.5567C29.0018 19.1048 29.3603 18.5683 29.6048 17.9779C29.8494 17.3875 29.9753 16.7546 29.9753 16.1156V9.00293ZM20.6165 14.2438H24.36C24.6579 14.2438 24.9435 14.3621 25.1541 14.5727C25.3648 14.7834 25.4831 15.069 25.4831 15.3669C25.4831 15.6647 25.3648 15.9504 25.1541 16.161C24.9435 16.3716 24.6579 16.4899 24.36 16.4899H20.6165C20.3187 16.4899 20.033 16.3716 19.8224 16.161C19.6118 15.9504 19.4935 15.6647 19.4935 15.3669C19.4935 15.069 19.6118 14.7834 19.8224 14.5727C20.033 14.3621 20.3187 14.2438 20.6165 14.2438Z" fill="#15BA5C"/>
</svg>
