<svg width="30" height="30" viewBox="0 0 30 30" fill="none" xmlns="http://www.w3.org/2000/svg">
<path d="M29.051 0.60685C28.9641 0.390344 28.797 0.215688 28.5846 0.119217C28.3722 0.0227454 28.1307 0.0118869 27.9105 0.0888999C27.6903 0.165913 27.5082 0.324868 27.4022 0.532697C27.2962 0.740526 27.2744 0.981227 27.3413 1.20473C28.7334 5.20556 25.9702 8.19344 23.8634 9.79377L23.0123 8.57404C22.7261 8.16497 22.0863 7.82482 21.5888 7.81883L16.8118 7.83981C16.2282 7.85728 15.6602 8.03229 15.168 8.34628L1.09168 18.2165C0.764265 18.4469 0.541484 18.7976 0.472115 19.1919C0.402747 19.5863 0.492444 19.992 0.721567 20.3203L7.1184 29.4728C7.5979 30.1545 8.3636 30.0721 9.04689 29.5956L23.1232 19.7239C23.5278 19.4377 23.9953 18.8204 24.1601 18.3484L25.6556 13.6358C25.8204 13.1653 25.72 12.4475 25.4338 12.0384L24.9153 11.2952C27.7444 9.12697 30.6813 5.29546 29.051 0.60685ZM22.5014 14.6292C21.9774 14.995 21.3297 15.138 20.7004 15.0268C20.0711 14.9155 19.5117 14.5591 19.1449 14.0358C18.7776 13.5109 18.6337 12.8617 18.7447 12.2307C18.8556 11.5997 19.2124 11.0385 19.7367 10.6704C20.148 10.383 20.6387 10.2311 21.1404 10.2356C21.642 10.2402 22.1298 10.4011 22.5358 10.6958C22.1282 10.9416 21.848 11.0854 21.7956 11.1079C21.6098 11.1965 21.4597 11.3455 21.3697 11.5306C21.2798 11.7156 21.2553 11.9258 21.3004 12.1266C21.3455 12.3273 21.4575 12.5069 21.618 12.6357C21.7784 12.7645 21.9779 12.835 22.1837 12.8356C22.3136 12.8356 22.4419 12.8061 22.5688 12.7472C22.8605 12.6103 23.1697 12.4455 23.4963 12.2527C23.5702 12.7023 23.5161 13.1636 23.3401 13.5839C23.1642 14.0041 22.8735 14.3664 22.5014 14.6292Z" fill="#15BA5C"/>
</svg>
