<svg width="27" height="28" viewBox="0 0 27 28" fill="none" xmlns="http://www.w3.org/2000/svg">
<g clip-path="url(#clip0_656_2684)">
<path d="M23.5986 3.02832L21.9131 2.18555L20.2275 3.02832L18.542 2.18555L16.8564 3.02832L15.1709 2.18555L13.4854 3.02832L11.7998 2.18555L10.1143 3.02832L7.58594 2.18555V15.6726H19.3848V22.8335C19.3848 24.4627 21.1267 25.7832 22.7559 25.7832H23.3879C25.0171 25.7832 26.127 24.4627 26.127 22.8335V2.18555L23.5986 3.02832ZM14.3545 13.1416L14.3281 11.4561H22.7295L22.7559 13.1416H14.3545ZM10.9834 8.92773L10.957 7.24219H22.7295L22.7559 8.92773H10.9834Z" fill="#15BA5C"/>
<path d="M17.6992 22.8335V17.3555H0.84375V19.041C0.84375 21.7037 1.1482 22.8135 1.60541 23.6568C2.38128 25.0879 3.78608 25.7832 5.90039 25.7832H19.3848C19.3848 25.7832 17.6992 24.7297 17.6992 22.8335Z" fill="#15BA5C"/>
</g>
<defs>
<clipPath id="clip0_656_2684">
<rect width="26.9688" height="26.9688" fill="white" transform="translate(0 0.5)"/>
</clipPath>
</defs>
</svg>
