<svg width="52" height="52" viewBox="0 0 52 52" fill="none" xmlns="http://www.w3.org/2000/svg">
<path d="M41.1409 51.4316H10.8591C5.01835 51.4316 0.283447 46.6967 0.283447 40.8559V10.5741C0.283447 4.73493 5.01835 2.28882e-05 10.8591 2.28882e-05H41.1409C46.9816 2.28882e-05 51.7165 4.73493 51.7165 10.5741V40.8559C51.7165 46.6967 46.9816 51.4316 41.1409 51.4316Z" fill="#15BA5C"/>
<path d="M24.0081 43.5253H34.6593C40.3427 43.5253 44.0767 37.589 41.6136 32.4654L38.512 26.0108C38.4241 25.8257 38.4241 25.6113 38.512 25.4263L41.6136 18.9732C44.0767 13.8497 40.3427 7.91175 34.6593 7.91175H24.0081C23.004 7.91175 22.1897 8.72609 22.1897 9.73014V41.7069C22.1897 42.711 23.004 43.5253 24.0081 43.5253Z" fill="white"/>
<path d="M17.4835 12.1171V39.3929C17.4835 41.5198 15.7592 43.2441 13.6339 43.2441C11.413 43.2441 9.61157 41.4442 9.61157 39.2233V12.1171C9.61157 9.94397 11.3744 8.18111 13.5476 8.18111C15.7222 8.18111 17.4835 9.94397 17.4835 12.1171Z" fill="white"/>
</svg>
