<svg width="199" height="79" viewBox="0 0 199 169" fill="none" xmlns="http://www.w3.org/2000/svg">
<path d="M108.609 168.82C153.045 168.82 189.067 132.918 189.067 88.63C189.067 44.3423 153.045 8.44 108.609 8.44C64.173 8.44 28.1506 44.3423 28.1506 88.63C28.1506 132.918 64.173 168.82 108.609 168.82Z" fill="url(#paint0_linear_610_109534)"/>
<path d="M101.752 7.16607L38.0835 58.2301V140.77C38.0835 148.06 43.9933 153.97 51.2835 153.97H168.312C175.602 153.97 181.512 148.06 181.512 140.77V58.2301L118.303 7.1932C113.477 3.29688 106.59 3.28559 101.752 7.16607Z" fill="black"/>
<rect x="58.7795" y="22.9233" width="102.517" height="127.192" rx="15.84" fill="url(#paint1_linear_610_109534)"/>
<path d="M67.6003 42.1C67.6003 40.642 68.7863 39.46 70.2492 39.46H147.368C148.831 39.46 150.017 40.642 150.017 42.1V42.1C150.017 43.5581 148.831 44.74 147.368 44.74H70.2492C68.7863 44.74 67.6003 43.5581 67.6003 42.1V42.1Z" fill="#FF8F6B"/>
<path d="M67.6003 59.26C67.6003 57.802 68.7863 56.62 70.2492 56.62H147.368C148.831 56.62 150.017 57.802 150.017 59.26V59.26C150.017 60.718 148.831 61.9 147.368 61.9H70.2492C68.7863 61.9 67.6003 60.718 67.6003 59.26V59.26Z" fill="#D5D5D5"/>
<path d="M67.6003 76.42C67.6003 74.962 68.7863 73.78 70.2492 73.78H147.368C148.831 73.78 150.017 74.962 150.017 76.42V76.42C150.017 77.8781 148.831 79.06 147.368 79.06H70.2492C68.7863 79.06 67.6003 77.8781 67.6003 76.42V76.42Z" fill="#D5D5D5"/>
<path d="M67.6003 93.58C67.6003 92.122 68.7863 90.94 70.2492 90.94H147.368C148.831 90.94 150.017 92.122 150.017 93.58V93.58C150.017 95.038 148.831 96.22 147.368 96.22H70.2492C68.7863 96.22 67.6003 95.038 67.6003 93.58V93.58Z" fill="#D5D5D5"/>
<path fill-rule="evenodd" clip-rule="evenodd" d="M38.0835 58.0939V140.77C38.0835 148.06 43.9933 153.97 51.2835 153.97H131.524C144.378 153.97 149.65 137.466 139.176 130.014L38.0835 58.0939Z" fill="#15BA5C"/>
<path fill-rule="evenodd" clip-rule="evenodd" d="M181.512 58.0939V140.77C181.512 148.06 175.602 153.97 168.312 153.97H50.4578L181.512 58.0939Z" fill="#15BA5C"/>
<path fill-rule="evenodd" clip-rule="evenodd" d="M181.783 59.3366L55.4028 153.97H50.1282L180.229 57.2036L181.783 59.3366Z" fill="black"/>
<path d="M11.575 115.43C11.0693 115.173 10.4397 115.336 10.1277 115.825L10.0701 115.925C9.82882 116.398 9.95661 116.979 10.3708 117.309L10.4636 117.377C13.5066 119.334 15.4886 122.038 16.4978 125.507C16.6691 126.102 17.2927 126.443 17.8875 126.269H17.8884C18.4793 126.096 18.8239 125.473 18.6492 124.878H18.6501C17.4868 120.881 15.1866 117.747 11.6746 115.487L11.575 115.43Z" fill="black" stroke="black" stroke-width="0.66"/>
<path d="M67.5371 113.482C61.3772 110.835 54.506 113.144 51.1172 118.869C50.599 118.398 50.0523 117.957 49.4824 117.552L49.1787 117.342C42.7539 113.027 33.5308 114.606 26.4902 121.231L26.2773 121.44C25.2285 122.513 24.3988 124.013 23.748 125.765C23.0526 127.638 22.5526 129.821 22.209 132.127L22.0732 133.107C21.5249 137.329 21.4291 141.888 21.4668 145.591C20.7063 143.788 19.8507 142.035 18.9385 140.287L17.2451 137.031C13.2748 129.399 9.06657 121.641 2.53516 115.829L2.53418 115.828L2.44434 115.757C1.98308 115.426 1.33734 115.488 0.953125 115.923L0.880859 116.013C0.569766 116.444 0.607586 117.037 0.964844 117.427L1.04688 117.508C7.35379 123.121 11.4006 130.636 15.2891 138.125L16.9521 141.328C18.3427 143.991 19.5905 146.647 20.5537 149.478V149.479C20.8459 150.331 21.1402 151.163 21.3838 152.015L21.3828 152.016C21.383 152.017 21.3841 152.02 21.3848 152.025C21.3856 152.031 21.3862 152.04 21.3867 152.052C21.3878 152.077 21.3872 152.11 21.3848 152.151C21.3823 152.192 21.3781 152.234 21.374 152.284L21.3643 152.444V152.447L21.3633 152.656C21.3665 152.866 21.3841 153.074 21.4287 153.245L21.4297 153.247C21.5416 153.665 21.7901 153.955 22.1035 154.12L22.1055 154.121C22.3353 154.241 22.6207 154.307 22.9639 154.245H22.9668C23.2102 154.199 23.5971 154.062 23.8047 153.568L23.8037 153.567C23.8273 153.511 23.8421 153.444 23.8516 153.391C23.8631 153.326 23.8741 153.246 23.8828 153.152C23.8916 153.057 23.8985 152.946 23.9023 152.82V152.392L23.7979 149.54C23.674 145.953 23.5609 140.199 24.1318 134.789L24.21 134.086C24.4918 131.685 24.903 129.385 25.5195 127.426C26.0992 125.585 26.8522 124.075 27.8262 123.063L28.0234 122.866C34.3146 116.947 42.3785 115.486 47.9238 119.202L48.1865 119.383C48.8917 119.884 49.5529 120.443 50.1602 121.057C50.054 121.602 49.9895 122.295 49.999 123C50.0083 123.684 50.0867 124.401 50.2744 125.017L50.3613 125.275C50.5919 125.888 50.9519 126.394 51.4326 126.707L51.6455 126.829C52.2239 127.118 52.9405 127.164 53.7803 126.786L53.9502 126.705C54.7271 126.31 55.0071 125.554 54.9355 124.74C54.8881 124.181 54.6541 123.572 54.4492 123.141L54.2617 122.778C53.8199 121.994 53.3066 121.255 52.7383 120.566C55.3893 115.5 61.1617 113.34 66.3936 115.437L66.9043 115.656C67.4692 115.914 68.1316 115.664 68.3906 115.103L68.3916 115.101C68.6463 114.539 68.4011 113.872 67.8359 113.615L67.5371 113.482ZM52.3125 123.884C52.4246 124.084 52.6066 124.448 52.6816 124.789L52.6807 124.79C52.6817 124.795 52.6816 124.802 52.6826 124.809C52.677 124.81 52.672 124.813 52.667 124.814C52.6548 124.816 52.6464 124.816 52.6416 124.817C52.6288 124.809 52.6054 124.791 52.5732 124.739C52.5363 124.678 52.5015 124.596 52.459 124.484V124.483L52.3916 124.282C52.3523 124.148 52.3218 124.004 52.2959 123.854C52.3016 123.864 52.3068 123.874 52.3125 123.884Z" fill="black" stroke="black" stroke-width="0.66"/>
<path fill-rule="evenodd" clip-rule="evenodd" d="M175.475 27.5428C176.277 24.3019 176.225 21.1809 176.321 17.8937C176.34 17.2517 175.832 16.7179 175.188 16.6986C174.544 16.6793 174.006 17.1859 173.987 17.8279C173.896 20.945 173.969 23.9113 173.208 26.9897C173.054 27.6124 173.437 28.2428 174.063 28.3936C174.688 28.5483 175.322 28.1654 175.475 27.5428Z" fill="black"/>
<path fill-rule="evenodd" clip-rule="evenodd" d="M182.29 33.8234C187.731 28.8809 192.858 22.5229 196.442 16.103C196.755 15.5423 196.551 14.8345 195.987 14.5251C195.424 14.2157 194.713 14.4168 194.4 14.9776C190.935 21.1848 185.976 27.334 180.714 32.1102C180.239 32.5433 180.206 33.2781 180.641 33.75C181.075 34.2218 181.814 34.2566 182.29 33.8234Z" fill="black"/>
<path fill-rule="evenodd" clip-rule="evenodd" d="M183.668 39.2223C188.645 40.0383 193.775 38.6461 198.3 36.6776C198.891 36.4184 199.16 35.7339 198.902 35.15C198.644 34.5621 197.954 34.2952 197.364 34.5505C193.243 36.345 188.581 37.6754 184.049 36.9328C183.413 36.8284 182.811 37.2577 182.707 37.8881C182.602 38.5184 183.033 39.1179 183.668 39.2223Z" fill="black"/>
<path fill-rule="evenodd" clip-rule="evenodd" d="M39.921 16.106C40.6301 15.8542 41.3763 15.5195 41.9517 15.035C42.6351 14.4594 42.913 13.7182 43.0996 12.938C43.3393 11.9356 43.435 10.8678 43.7256 9.8638C43.8331 9.49095 44.0402 9.35002 44.129 9.28747C44.3536 9.12947 44.5805 9.08724 44.7941 9.10308C45.0471 9.12136 45.3948 9.2168 45.6234 9.63961C45.656 9.70012 45.6983 9.79232 45.7269 9.91864C45.7476 10.0112 45.7611 10.3008 45.7831 10.4202C45.8381 10.7143 45.8842 11.0084 45.9274 11.304C46.0712 12.2881 46.1539 13.124 46.6083 14.0281C47.2249 15.2555 47.8427 16.0065 48.6805 16.3391C49.4907 16.6608 50.4593 16.6003 51.6969 16.3481C51.8147 16.3196 51.9312 16.2953 52.0466 16.2754C52.5922 16.1803 53.1138 16.5373 53.221 17.0791C53.3282 17.6205 52.9814 18.1481 52.4406 18.2671C52.3278 18.2919 52.2165 18.3155 52.1065 18.337C50.434 18.7496 48.4979 20.2224 47.3728 21.5119C47.026 21.9095 46.5183 23.0212 46.0003 23.7303C45.6181 24.2534 45.1885 24.5983 44.8279 24.7201C44.5862 24.8021 44.3825 24.7896 44.2142 24.7481C43.9697 24.688 43.7667 24.556 43.6111 24.346C43.5263 24.2311 43.4476 24.0772 43.4102 23.8806C43.3922 23.7859 43.3902 23.5455 43.3906 23.4367C43.2851 23.0748 43.1559 22.7214 43.0617 22.3563C42.8372 21.4851 42.3967 20.9335 41.8734 20.2049C41.384 19.523 40.8583 19.0945 40.0877 18.7525C39.9875 18.7281 39.1786 18.5307 38.8929 18.4174C38.4756 18.2513 38.2767 17.9731 38.2046 17.8232C38.0819 17.5689 38.0693 17.3468 38.0938 17.1616C38.13 16.8882 38.2531 16.6543 38.4715 16.4654C38.6068 16.3481 38.809 16.2339 39.0795 16.1783C39.2886 16.1348 39.8432 16.1096 39.921 16.106ZM44.6665 14.6861C44.704 14.7693 44.744 14.853 44.7863 14.9375C45.6894 16.7351 46.6992 17.7387 47.9266 18.2257L47.9678 18.2415C47.1466 18.8492 46.4033 19.5282 45.8353 20.1793C45.6013 20.4474 45.2916 21.0042 44.9571 21.5753C44.6531 20.5903 44.1559 19.8942 43.5308 19.023C43.0532 18.3581 42.5528 17.8577 41.9378 17.45C42.415 17.2059 42.8702 16.9199 43.2667 16.5861C43.9269 16.03 44.3633 15.3859 44.6665 14.6861Z" fill="#FF8F6B"/>
<defs>
<linearGradient id="paint0_linear_610_109534" x1="107.989" y1="-17.6718" x2="109.626" y2="263.943" gradientUnits="userSpaceOnUse">
<stop stop-color="#FFFFD5"/>
<stop offset="1" stop-color="#F5F5AA"/>
</linearGradient>
<linearGradient id="paint1_linear_610_109534" x1="110.038" y1="22.9233" x2="110.038" y2="150.116" gradientUnits="userSpaceOnUse">
<stop stop-color="white"/>
<stop offset="0.71875" stop-color="#EAEAEA"/>
</linearGradient>
</defs>
</svg>
