<svg width="128" height="52" viewBox="0 0 228 52" fill="none" xmlns="http://www.w3.org/2000/svg">
<path d="M97.5108 20.8471C96.3896 21.5273 95.5012 22.4665 94.8457 23.6634C94.1902 24.8602 93.8633 26.1758 93.8633 27.6117C93.8633 29.0738 94.1979 30.4033 94.8658 31.6001C95.532 32.797 96.4204 33.7409 97.5293 34.4349C98.6383 35.1274 99.8474 35.4729 101.158 35.4729C102.468 35.4729 103.671 35.1274 104.767 34.4349C105.864 33.7409 106.726 32.797 107.357 31.6001C107.986 30.4033 108.301 29.0738 108.301 27.6117C108.301 26.1758 107.986 24.8602 107.357 23.6634C106.726 22.4665 105.864 21.5273 104.767 20.8471C103.671 20.1669 102.468 19.8261 101.158 19.8261C99.8474 19.8261 98.6321 20.1669 97.5108 20.8471ZM108.395 15.7451C110.574 16.9296 112.288 18.5552 113.535 20.6204C114.783 22.6871 115.406 25.0052 115.406 27.5747C115.406 30.1704 114.783 32.5132 113.535 34.6046C112.288 36.6959 110.574 38.3462 108.395 39.5554C106.216 40.7646 103.779 41.3691 101.083 41.3691C98.3853 41.3691 95.9485 40.7707 93.7692 39.5739C91.5899 38.3771 89.8764 36.7268 88.6286 34.6231C87.3825 32.5193 86.7578 30.1704 86.7578 27.5747C86.7578 25.0052 87.3825 22.6871 88.6286 20.6204C89.8764 18.5552 91.5899 16.9296 93.7692 15.7451C95.9485 14.5606 98.3853 13.9684 101.083 13.9684C103.779 13.9684 106.216 14.5606 108.395 15.7451Z" fill="#1E1E1E"/>
<path d="M125.373 33.8457C126.371 34.8698 127.637 35.3819 129.173 35.3819C130.683 35.3819 131.905 34.876 132.839 33.8658C133.772 32.854 134.24 31.4922 134.24 29.7771V13.9607H141.265V29.7771C141.265 32.106 140.771 34.1465 139.787 35.9001C138.802 37.6522 137.394 39.0032 135.564 39.9487C133.735 40.8957 131.591 41.3691 129.135 41.3691C126.678 41.3691 124.521 40.8957 122.666 39.9487C120.811 39.0032 119.378 37.6522 118.368 35.9001C117.356 34.1465 116.852 32.106 116.852 29.7771V13.9607H123.875V29.7771C123.875 31.4659 124.375 32.8232 125.373 33.8457Z" fill="#1E1E1E"/>
<path d="M169.672 13.9059H192.386V19.6124H184.45V41.4238H177.533V19.6124H169.672V13.9059Z" fill="#1E1E1E"/>
<path d="M220.273 26.5017C221.041 25.7969 221.425 24.7759 221.425 23.4402C221.425 22.1555 221.041 21.1669 220.273 20.4744C219.504 19.7803 218.415 19.4349 217.004 19.4349H212.62V27.5598H217.004C218.415 27.5598 219.504 27.2081 220.273 26.5017ZM225.206 16.3533C227.07 17.9789 228.002 20.2662 228.002 23.2135C228.002 26.3383 227.07 28.7628 225.206 30.4886C223.341 32.2145 220.721 33.0782 217.345 33.0782H212.62V41.4082H205.703V13.9165H217.345C220.721 13.9165 223.341 14.7293 225.206 16.3533Z" fill="#1E1E1E"/>
<path d="M204.964 41.3926H197.914L192.656 13.9378H199.592L204.964 41.3926Z" fill="#1E1E1E"/>
<path d="M161.462 13.9532H168.114V41.3848H161.854L149.409 24.9884V41.3848H142.719V13.9532H149.019L161.501 30.4667L161.462 13.9532Z" fill="#1E1E1E"/>
<path d="M77.4157 35.0522C76.6846 35.5751 75.6914 35.8357 74.4375 35.8357H68.9515V30.0752H74.4375C75.6914 30.0505 76.6846 30.2911 77.4157 30.8001C78.1467 31.3106 78.5123 31.9954 78.5123 32.8575C78.5123 33.7983 78.1467 34.5294 77.4157 35.0522ZM84.4101 29.2146C83.4045 27.9607 82.0257 27.1633 80.2767 26.824C81.7388 26.4322 82.894 25.7012 83.7438 24.6293C84.5921 23.5589 85.0178 22.305 85.0178 20.8676C85.0178 19.4579 84.5998 18.2302 83.7639 17.1845C82.9264 16.1404 81.745 15.3368 80.2165 14.7754C78.6896 14.214 76.8928 13.9318 74.8292 13.9318H61.7812V19.5335H69.6393V19.535H74.4375C75.4307 19.5103 76.2142 19.7262 76.7895 20.1828C77.3632 20.6393 77.6517 21.2855 77.6517 22.1215C77.6517 22.9836 77.3632 23.6561 76.7895 24.1404C76.2142 24.6231 75.4307 24.8652 74.4375 24.8652H69.6393H68.9515H61.7812V41.4004H75.3397C77.4805 41.4004 79.3482 41.0935 80.943 40.4796C82.5346 39.8658 83.7639 38.9774 84.626 37.8145C85.4882 36.6531 85.9185 35.3005 85.9185 33.7598C85.9185 31.983 85.4157 30.4685 84.4101 29.2146Z" fill="#1E1E1E"/>
<path d="M40.8574 51.4316H10.5756C4.7349 51.4316 0 46.6967 0 40.856V10.5742C0 4.73499 4.7349 8.39233e-05 10.5756 8.39233e-05H40.8574C46.6982 8.39233e-05 51.4331 4.73499 51.4331 10.5742V40.856C51.4331 46.6967 46.6982 51.4316 40.8574 51.4316Z" fill="#15BA5C"/>
<path d="M23.7246 43.5254H34.3759C40.0593 43.5254 43.7932 37.589 41.3302 32.4655L38.2286 26.0109C38.1406 25.8258 38.1406 25.6114 38.2286 25.4263L41.3302 18.9733C43.7932 13.8497 40.0593 7.91181 34.3759 7.91181H23.7246C22.7206 7.91181 21.9062 8.72615 21.9062 9.7302V41.707C21.9062 42.711 22.7206 43.5254 23.7246 43.5254Z" fill="white"/>
<path d="M17.2001 12.1172V39.393C17.2001 41.5198 15.4758 43.2441 13.3505 43.2441C11.1295 43.2441 9.32812 41.4443 9.32812 39.2233V12.1172C9.32812 9.94403 11.091 8.18117 13.2641 8.18117C15.4388 8.18117 17.2001 9.94403 17.2001 12.1172Z" fill="white"/>
</svg>
